<svg width="24" height="24" viewBox="0 0 24 24" fill="none" xmlns="http://www.w3.org/2000/svg">
<path d="M17.3335 8.6665H6.66683C5.93045 8.6665 5.3335 9.26346 5.3335 9.99984V16.6665C5.3335 17.4029 5.93045 17.9998 6.66683 17.9998H17.3335C18.0699 17.9998 18.6668 17.4029 18.6668 16.6665V9.99984C18.6668 9.26346 18.0699 8.6665 17.3335 8.6665Z" stroke="var(--icon-primary-color, #252525)" stroke-linecap="round" stroke-linejoin="round"/>
<path d="M14.6668 18V7.33333C14.6668 6.97971 14.5264 6.64057 14.2763 6.39052C14.0263 6.14048 13.6871 6 13.3335 6H10.6668C10.3132 6 9.97407 6.14048 9.72402 6.39052C9.47397 6.64057 9.3335 6.97971 9.3335 7.33333V18" stroke="var(--icon-primary-color, #252525)" stroke-linecap="round" stroke-linejoin="round"/>
</svg>
