<svg width="50" height="50" viewBox="0 0 50 50" fill="none" xmlns="http://www.w3.org/2000/svg">
<rect width="50" height="50" fill="white"/>
<path d="M8.75 6.25V7.5H7.5V8.75H6.25V6.25H8.75ZM41.25 6.25V7.5H42.5V8.75H43.75V6.25H41.25ZM7.5 42.5V41.25H6.25V43.75H8.75V42.5H7.5ZM42.5 41.25V42.5H41.25V43.75H43.75V41.25H42.5ZM41.25 5H8.75V6.25H41.25V5ZM8.75 45H41.25V43.75H8.75V45ZM6.25 8.75H5V41.25H6.25V8.75ZM43.75 41.25H45V8.75H43.75V41.25Z" fill="black"/>
<path d="M11.25 21.25H10V15H11.25V21.25ZM15 21.25H11.25V22.5H15V21.25ZM15 13.75H11.25V15H15V13.75ZM15 16.25H16.25V15H15V16.25ZM15 21.25H16.25V20H15V21.25Z" fill="black"/>
<path d="M23.75 13.75V15H21.25V22.5H20V15H17.5V13.75H23.75Z" fill="black"/>
<path d="M26.25 17.5H25V13.75H26.25V17.5ZM30 13.75V17.5H26.25V18.75H30V21.25H31.25V13.75H30ZM30 21.25H26.25V22.5H30V21.25ZM26.25 20H25V21.25H26.25V20Z" fill="black"/>
<path d="M41.25 21.25V23.75H40V22.5H33.75V23.75H32.5V21.25H33.75V15H35V21.25H38.75V15H35V13.75H40V21.25H41.25Z" fill="black"/>
<path d="M25 35H18.75V36.25H25V35Z" fill="black"/>
<path d="M32.5 27.5V36.25H31.25V31.25H30V30H31.25V27.5H32.5ZM27.5 32.5V27.5H26.25V36.25H27.5V33.75H28.75V32.5H27.5ZM30 31.25H28.75V32.5H30V31.25Z" fill="black"/>
<path d="M35 31.25H33.75V27.5H35V31.25ZM38.75 27.5V31.25H35V32.5H38.75V35H40V27.5H38.75ZM38.75 35H35V36.25H38.75V35ZM35 33.75H33.75V35H35V33.75Z" fill="black"/>
</svg>
